<?xml version="1.0" encoding="utf-8"?>
<!-- Generator: Adobe Illustrator 23.0.3, SVG Export Plug-In . SVG Version: 6.00 Build 0)  -->
<svg version="1.1" id="Layer_1" xmlns="http://www.w3.org/2000/svg" xmlns:xlink="http://www.w3.org/1999/xlink" x="0px" y="0px"
	 viewBox="0 0 300 300" style="enable-background:new 0 0 300 300;" xml:space="preserve">
<style type="text/css">
	.st0{fill:#E6E6E6;}
	.st1{fill:#66101F;stroke:#3F0A15;stroke-width:4;stroke-miterlimit:10;}
	.st2{fill:#FDF5AD;}
	.st3{fill:none;stroke:#3F0A15;stroke-width:4;stroke-miterlimit:10;}
	.st4{fill:#3F0A15;stroke:#3F0A15;stroke-width:4;stroke-miterlimit:10;}
	.st5{fill:#911933;}
	.st6{fill:#FFFFFF;}
	.st7{fill:#99C19D;stroke:#6B8F71;stroke-width:4;stroke-miterlimit:10;}
	.st8{fill:#83AA85;stroke:#6B8F71;stroke-width:4;stroke-miterlimit:10;}
	.st9{fill:none;stroke:#6B8F71;stroke-width:4;stroke-miterlimit:10;}
	.st10{fill:#6B8F71;stroke:#6B8F71;stroke-width:4;stroke-miterlimit:10;}
	.st11{fill:#647764;}
</style>
<g id="graphics_skill">
	<circle id="circle_x5F_bckgd_4_" class="st0" cx="150.5" cy="152.5" r="142.5"/>
	<g id="graphics-book">
		<g id="body_4_">
			<rect id="bottom_cover_4_" x="88" y="87" class="st1" width="139" height="173.1"/>
			<path id="pages_x5F_book-thickness_4_" class="st2" d="M88,258c0,0-47-17,0-34h132v34H88z"/>
			<rect id="top_cover_4_" x="85" y="49" class="st1" width="135" height="173.1"/>
			<path id="spine-pages-arc_4_" class="st3" d="M85,222c0,0-43,18,3,38"/>
			<path id="spine_4_" class="st4" d="M85,49c0,0-10-2-18,2v184c0,0-3-8,18-13V49z"/>
		</g>
		<g id="title_4_">
			<rect id="title_x5F_strip_4_" x="106" y="90" class="st5" width="95" height="60"/>
			<g id="Graphics">
				<path class="st6" d="M122.3,114.4c-0.9,0-1.6-0.2-2.4-0.6c-0.7-0.4-1.3-1-1.7-1.7c-0.4-0.7-0.6-1.5-0.6-2.4V102
					c0-0.9,0.2-1.7,0.6-2.4c0.4-0.7,1-1.3,1.7-1.7c0.7-0.4,1.5-0.6,2.3-0.6c0.9,0,1.7,0.2,2.4,0.6c0.7,0.4,1.3,1,1.7,1.7
					c0.4,0.7,0.6,1.5,0.6,2.4v1.1c0,0.1,0,0.1-0.1,0.1h-2.7c-0.1,0-0.1,0-0.1-0.1v-0.9c0-0.6-0.2-1.1-0.5-1.5
					c-0.3-0.4-0.8-0.6-1.3-0.6c-0.5,0-0.9,0.2-1.2,0.6c-0.4,0.4-0.5,0.8-0.5,1.3v7.6c0,0.5,0.2,1,0.5,1.4c0.4,0.4,0.8,0.6,1.2,0.6
					c0.5,0,0.9-0.2,1.3-0.6c0.3-0.4,0.5-0.8,0.5-1.4v-1.2h-1.7c-0.1,0-0.1,0-0.1-0.1v-2.7c0-0.1,0-0.1,0.1-0.1h4.5
					c0.1,0,0.1,0,0.1,0.1v4c0,0.9-0.2,1.7-0.6,2.4s-1,1.3-1.7,1.7C123.9,114.2,123.2,114.4,122.3,114.4z"/>
				<path class="st6" d="M128.8,114.2c-0.1,0-0.1,0-0.1-0.1l0-16.5c0-0.1,0-0.1,0.1-0.1h4.8c0.9,0,1.7,0.2,2.4,0.6
					c0.7,0.4,1.3,1,1.7,1.7c0.4,0.7,0.6,1.5,0.6,2.4c0,0.6-0.1,1.1-0.3,1.6c-0.2,0.5-0.4,0.9-0.6,1.2c-0.2,0.3-0.5,0.6-0.6,0.7
					c0.9,1,1.3,2.1,1.3,3.4l0,4.9c0,0.1,0,0.1-0.1,0.1h-2.7c-0.1,0-0.1,0-0.1-0.1v-5c0-0.6-0.2-1.1-0.6-1.5
					c-0.4-0.4-0.9-0.6-1.5-0.6h-1.6l0,7.1c0,0.1,0,0.1-0.1,0.1H128.8z M131.6,104.1h2.1c0.5,0,0.9-0.2,1.3-0.6s0.6-0.8,0.6-1.3
					c0-0.5-0.2-1-0.6-1.3c-0.4-0.4-0.8-0.6-1.3-0.6h-2.1V104.1z"/>
				<path class="st6" d="M139.4,114.1l3-16.5c0-0.1,0.1-0.1,0.1-0.1h3.5c0.1,0,0.1,0,0.1,0.1l2.9,16.5c0,0.1,0,0.1-0.1,0.1h-2.7
					c-0.1,0-0.1,0-0.1-0.1l-0.3-1.8h-3.3l-0.3,1.8c0,0.1-0.1,0.1-0.1,0.1h-2.7C139.5,114.2,139.4,114.1,139.4,114.1z M143.1,109.7
					h2.3l-1-6.7l-0.1-0.9l-0.1,0.9L143.1,109.7z"/>
				<path class="st6" d="M150.6,114.2c-0.1,0-0.1,0-0.1-0.1l0-16.5c0-0.1,0-0.1,0.1-0.1h4.6c1.5,0,2.6,0.4,3.5,1.3s1.3,2.1,1.3,3.6
					c0,1.1-0.2,2.1-0.7,3s-1,1.5-1.8,1.9s-1.5,0.7-2.4,0.7h-1.8v6c0,0.1,0,0.1-0.1,0.1H150.6z M153.4,105.1h1.8c0.5,0,1-0.2,1.3-0.7
					c0.4-0.5,0.6-1.1,0.6-1.9c0-0.6-0.2-1.1-0.5-1.5c-0.3-0.4-0.8-0.6-1.4-0.6l-1.8,0V105.1z"/>
				<path class="st6" d="M161.8,114.2c-0.1,0-0.1,0-0.1-0.1l0-16.5c0-0.1,0-0.1,0.1-0.1h2.7c0.1,0,0.1,0,0.1,0.1l0,6.5h3.6v-6.5
					c0-0.1,0-0.1,0.1-0.1h2.7c0.1,0,0.1,0,0.1,0.1l0,16.5c0,0.1,0,0.1-0.1,0.1h-2.7c-0.1,0-0.1,0-0.1-0.1V107h-3.6v7.1
					c0,0.1,0,0.1-0.1,0.1H161.8z"/>
				<path class="st6" d="M173.2,114.2c-0.1,0-0.1,0-0.1-0.1l0-16.5c0-0.1,0-0.1,0.1-0.1h2.7c0.1,0,0.1,0,0.1,0.1l0,16.5
					c0,0.1,0,0.1-0.1,0.1H173.2z"/>
				<path class="st6" d="M182.5,114.4c-0.9,0-1.7-0.2-2.4-0.7c-0.7-0.4-1.3-1-1.7-1.8c-0.4-0.7-0.6-1.6-0.6-2.5l0-7.5
					c0-0.9,0.2-1.7,0.6-2.4c0.4-0.7,1-1.3,1.7-1.8c0.7-0.4,1.5-0.7,2.4-0.7s1.7,0.2,2.4,0.6c0.7,0.4,1.3,1,1.7,1.7
					c0.4,0.7,0.6,1.5,0.6,2.4v1.1c0,0.1,0,0.1-0.1,0.1h-2.7c-0.1,0-0.1,0-0.1-0.1V102c0-0.5-0.2-1-0.5-1.4c-0.3-0.4-0.8-0.6-1.3-0.6
					c-0.6,0-1,0.2-1.3,0.6c-0.3,0.4-0.5,0.8-0.5,1.4v7.5c0,0.6,0.2,1.1,0.5,1.4s0.8,0.6,1.3,0.6c0.5,0,0.9-0.2,1.3-0.6
					c0.3-0.4,0.5-0.9,0.5-1.4v-1.1c0-0.1,0-0.1,0.1-0.1h2.7c0.1,0,0.1,0,0.1,0.1v1.1c0,0.9-0.2,1.7-0.6,2.5c-0.4,0.7-1,1.3-1.7,1.8
					S183.4,114.4,182.5,114.4z"/>
				<path class="st6" d="M118,143c-0.1,0-0.1,0-0.1-0.1l0-16.5c0-0.1,0-0.1,0.1-0.1l4.5,0c0.9,0,1.7,0.2,2.4,0.6
					c0.7,0.4,1.3,1,1.7,1.7c0.4,0.7,0.6,1.5,0.6,2.4v6.9c0,0.9-0.2,1.8-0.7,2.5c-0.4,0.8-1,1.4-1.8,1.8c-0.8,0.4-1.6,0.7-2.5,0.7
					L118,143z M120.8,140h1.5c0.6,0,1.1-0.2,1.5-0.6c0.4-0.4,0.6-0.9,0.6-1.5V131c0-0.5-0.2-1-0.6-1.3c-0.4-0.4-0.8-0.6-1.3-0.5
					l-1.7,0L120.8,140z"/>
				<path class="st6" d="M129.3,143c-0.1,0-0.1,0-0.1-0.1l0-16.5c0-0.1,0-0.1,0.1-0.1h7.7c0.1,0,0.1,0,0.1,0.1v2.7
					c0,0.1,0,0.1-0.1,0.1h-4.9v3.7h4.9c0.1,0,0.1,0,0.1,0.1l0,2.7c0,0.1,0,0.1-0.1,0.1h-4.9v4.2h4.9c0.1,0,0.1,0,0.1,0.1v2.7
					c0,0.1,0,0.1-0.1,0.1H129.3z"/>
				<path class="st6" d="M143.2,143.2c-0.9,0-1.7-0.2-2.4-0.7c-0.7-0.4-1.3-1-1.7-1.8c-0.4-0.7-0.6-1.5-0.6-2.4v-1.1
					c0-0.1,0-0.1,0.1-0.1h2.7c0.1,0,0.1,0,0.1,0.1v1.1c0,0.5,0.2,1,0.5,1.4c0.4,0.4,0.8,0.6,1.3,0.6s0.9-0.2,1.3-0.6
					c0.4-0.4,0.5-0.8,0.5-1.3c0-0.6-0.4-1.1-1.2-1.5c-0.3-0.1-0.7-0.4-1.2-0.7c-0.5-0.3-1.1-0.6-1.5-0.9c-0.9-0.5-1.5-1.2-2-1.9
					c-0.4-0.8-0.6-1.7-0.6-2.6c0-0.9,0.2-1.7,0.6-2.4s1-1.3,1.7-1.7s1.5-0.6,2.3-0.6c0.8,0,1.6,0.2,2.3,0.6c0.7,0.4,1.3,1,1.7,1.7
					c0.4,0.7,0.6,1.5,0.6,2.4v2c0,0.1,0,0.1-0.1,0.1h-2.7c-0.1,0-0.1,0-0.1-0.1l0-2c0-0.6-0.2-1-0.5-1.4c-0.4-0.4-0.8-0.5-1.2-0.5
					c-0.5,0-0.9,0.2-1.3,0.6s-0.5,0.8-0.5,1.3c0,0.5,0.1,1,0.3,1.3c0.2,0.4,0.6,0.7,1.2,1c0.1,0,0.2,0.1,0.5,0.3
					c0.2,0.1,0.5,0.3,0.8,0.4c0.3,0.2,0.5,0.3,0.7,0.4c0.2,0.1,0.3,0.2,0.4,0.2c0.8,0.4,1.4,1,1.9,1.6c0.5,0.6,0.7,1.4,0.7,2.4
					c0,0.9-0.2,1.7-0.6,2.5c-0.4,0.7-1,1.3-1.7,1.7S144.1,143.2,143.2,143.2z"/>
				<path class="st6" d="M149.7,143c-0.1,0-0.1,0-0.1-0.1l0-16.5c0-0.1,0-0.1,0.1-0.1h2.7c0.1,0,0.1,0,0.1,0.1l0,16.5
					c0,0.1,0,0.1-0.1,0.1H149.7z"/>
				<path class="st6" d="M159,143.2c-0.9,0-1.6-0.2-2.4-0.6c-0.7-0.4-1.3-1-1.7-1.7c-0.4-0.7-0.6-1.5-0.6-2.4v-7.6
					c0-0.9,0.2-1.7,0.6-2.4c0.4-0.7,1-1.3,1.7-1.7c0.7-0.4,1.5-0.6,2.3-0.6c0.9,0,1.7,0.2,2.4,0.6c0.7,0.4,1.3,1,1.7,1.7
					c0.4,0.7,0.6,1.5,0.6,2.4v1.1c0,0.1,0,0.1-0.1,0.1h-2.7c-0.1,0-0.1,0-0.1-0.1V131c0-0.6-0.2-1.1-0.5-1.5
					c-0.3-0.4-0.8-0.6-1.3-0.6c-0.5,0-0.9,0.2-1.2,0.6c-0.4,0.4-0.5,0.8-0.5,1.3v7.6c0,0.5,0.2,1,0.5,1.4c0.4,0.4,0.8,0.6,1.2,0.6
					c0.5,0,0.9-0.2,1.3-0.6c0.3-0.4,0.5-0.8,0.5-1.4v-1.2h-1.7c-0.1,0-0.1,0-0.1-0.1v-2.7c0-0.1,0-0.1,0.1-0.1h4.5
					c0.1,0,0.1,0,0.1,0.1v4c0,0.9-0.2,1.7-0.6,2.4s-1,1.3-1.7,1.7C160.7,143,159.9,143.2,159,143.2z"/>
				<path class="st6" d="M165.7,143c-0.1,0-0.2-0.1-0.2-0.2l0-16.3c0-0.1,0.1-0.2,0.2-0.2h2.2l4.1,9.5l-0.1-9.3
					c0-0.1,0.1-0.2,0.2-0.2h2.4c0.1,0,0.1,0.1,0.1,0.2l0,16.4c0,0.1,0,0.1-0.1,0.1h-2.1l-4.2-8.8l0.2,8.6c0,0.1-0.1,0.2-0.2,0.2
					H165.7z"/>
			</g>
		</g>
	</g>
</g>
</svg>
