<?xml version="1.0" encoding="utf-8"?>
<!-- Generator: Adobe Illustrator 23.0.3, SVG Export Plug-In . SVG Version: 6.00 Build 0)  -->
<svg version="1.1" id="Layer_1" xmlns="http://www.w3.org/2000/svg" xmlns:xlink="http://www.w3.org/1999/xlink" x="0px" y="0px"
	 viewBox="0 0 300 300" style="enable-background:new 0 0 300 300;" xml:space="preserve">
<style type="text/css">
	.st0{fill:#E6E6E6;}
	.st1{fill:#66101F;stroke:#3F0A15;stroke-width:4;stroke-miterlimit:10;}
	.st2{fill:#FDF5AD;}
	.st3{fill:none;stroke:#3F0A15;stroke-width:4;stroke-miterlimit:10;}
	.st4{fill:#3F0A15;stroke:#3F0A15;stroke-width:4;stroke-miterlimit:10;}
	.st5{fill:#911933;}
	.st6{fill:#FFFFFF;}
	.st7{fill:#99C19D;stroke:#6B8F71;stroke-width:4;stroke-miterlimit:10;}
	.st8{fill:#83AA85;stroke:#6B8F71;stroke-width:4;stroke-miterlimit:10;}
	.st9{fill:none;stroke:#6B8F71;stroke-width:4;stroke-miterlimit:10;}
	.st10{fill:#6B8F71;stroke:#6B8F71;stroke-width:4;stroke-miterlimit:10;}
	.st11{fill:#647764;}
</style>
<g id="html_x2F_css_skill">
	<circle id="circle_x5F_bckgd" class="st0" cx="149.5" cy="150.5" r="142.5"/>
	<g id="html-css-book">
		<g id="body_1_">
			<rect id="bottom_cover" x="87" y="85" class="st1" width="139" height="173.1"/>
			<path id="pages_x5F_book-thickness" class="st2" d="M87,256c0,0-47-17,0-34h132v34H87z"/>
			<rect id="top_cover" x="84" y="47" class="st1" width="135" height="173.1"/>
			<path id="spine-pages-arc" class="st3" d="M84,220c0,0-43,18,3,38"/>
			<path id="spine" class="st4" d="M84,47c0,0-10-2-18,2v184c0,0-3-8,18-13V47z"/>
		</g>
		<g id="title_1_">
			<rect id="title_x5F_strip" x="105" y="88" class="st5" width="95" height="46"/>
			<g>
				<path class="st6" d="M110,118.2c-0.1,0-0.1,0-0.1-0.1l0-16.5c0-0.1,0-0.1,0.1-0.1h2.7c0.1,0,0.1,0,0.1,0.1l0,6.5h3.6v-6.5
					c0-0.1,0-0.1,0.1-0.1h2.7c0.1,0,0.1,0,0.1,0.1l0,16.5c0,0.1,0,0.1-0.1,0.1h-2.7c-0.1,0-0.1,0-0.1-0.1V111h-3.6v7.1
					c0,0.1,0,0.1-0.1,0.1H110z"/>
				<path class="st6" d="M123.7,118.2c-0.1,0-0.1,0-0.1-0.1v-13.7h-3.1c-0.1,0-0.1,0-0.1-0.1l0-2.7c0-0.1,0-0.1,0.1-0.1h9.1
					c0.1,0,0.1,0,0.1,0.1v2.7c0,0.1,0,0.1-0.1,0.1h-3.1l0,13.7c0,0.1,0,0.1-0.1,0.1H123.7z"/>
				<path class="st6" d="M131,118.2c-0.1,0-0.1,0-0.1-0.1l0-16.5c0-0.1,0-0.1,0.1-0.1h2.9c0.1,0,0.1,0,0.2,0.1l2.2,3.2l2.2-3.2
					c0-0.1,0.1-0.1,0.2-0.1h3c0.1,0,0.1,0,0.1,0.1l0,16.5c0,0.1,0,0.1-0.1,0.1h-2.7c-0.1,0-0.1,0-0.1-0.1l0-12.2l-2.5,3.6l-2.5-3.6
					l0,12.2c0,0.1,0,0.1-0.1,0.1H131z"/>
				<path class="st6" d="M144.1,118.2c-0.1,0-0.1,0-0.1-0.1l0-16.5c0-0.1,0-0.1,0.1-0.1h2.7c0.1,0,0.1,0,0.1,0.1l0,13.6h4.9
					c0.1,0,0.1,0,0.1,0.1v2.7c0,0.1,0,0.1-0.1,0.1H144.1z"/>
				<path class="st6" d="M156,118.2c-0.1,0-0.1,0-0.1-0.1l3-16.5c0-0.1,0.1-0.1,0.1-0.1h2.5c0.1,0,0.1,0,0.1,0.1l-3,16.5
					c0,0.1-0.1,0.1-0.1,0.1H156z"/>
				<path class="st6" d="M171.3,118.4c-0.9,0-1.7-0.2-2.4-0.7s-1.3-1-1.7-1.8c-0.4-0.7-0.6-1.6-0.6-2.5l0-7.5c0-0.9,0.2-1.7,0.6-2.4
					c0.4-0.7,1-1.3,1.7-1.8c0.7-0.4,1.5-0.7,2.4-0.7s1.7,0.2,2.4,0.6c0.7,0.4,1.3,1,1.7,1.7c0.4,0.7,0.6,1.5,0.6,2.4v1.1
					c0,0.1,0,0.1-0.1,0.1h-2.7c-0.1,0-0.1,0-0.1-0.1V106c0-0.5-0.2-1-0.5-1.4c-0.3-0.4-0.8-0.6-1.3-0.6c-0.6,0-1,0.2-1.3,0.6
					c-0.3,0.4-0.5,0.8-0.5,1.4v7.5c0,0.6,0.2,1.1,0.5,1.4c0.3,0.4,0.8,0.6,1.3,0.6c0.5,0,0.9-0.2,1.3-0.6c0.3-0.4,0.5-0.9,0.5-1.4
					v-1.1c0-0.1,0-0.1,0.1-0.1h2.7c0.1,0,0.1,0,0.1,0.1v1.1c0,0.9-0.2,1.7-0.6,2.5c-0.4,0.7-1,1.3-1.7,1.8S172.2,118.4,171.3,118.4z
					"/>
				<path class="st6" d="M181.8,118.4c-0.9,0-1.7-0.2-2.4-0.7s-1.3-1-1.7-1.8c-0.4-0.7-0.6-1.5-0.6-2.4v-1.1c0-0.1,0-0.1,0.1-0.1
					h2.7c0.1,0,0.1,0,0.1,0.1v1.1c0,0.5,0.2,1,0.5,1.4c0.4,0.4,0.8,0.6,1.3,0.6c0.5,0,0.9-0.2,1.3-0.6c0.4-0.4,0.5-0.8,0.5-1.3
					c0-0.6-0.4-1.1-1.2-1.5c-0.3-0.1-0.7-0.4-1.2-0.7c-0.5-0.3-1.1-0.6-1.5-0.9c-0.9-0.5-1.5-1.2-2-1.9c-0.4-0.8-0.6-1.7-0.6-2.6
					c0-0.9,0.2-1.7,0.6-2.4c0.4-0.7,1-1.3,1.7-1.7c0.7-0.4,1.5-0.6,2.3-0.6c0.8,0,1.6,0.2,2.3,0.6c0.7,0.4,1.3,1,1.7,1.7
					c0.4,0.7,0.6,1.5,0.6,2.4v2c0,0.1,0,0.1-0.1,0.1h-2.7c-0.1,0-0.1,0-0.1-0.1l0-2c0-0.6-0.2-1-0.5-1.4c-0.4-0.4-0.8-0.5-1.2-0.5
					c-0.5,0-0.9,0.2-1.3,0.6c-0.4,0.4-0.5,0.8-0.5,1.3c0,0.5,0.1,1,0.3,1.3c0.2,0.4,0.6,0.7,1.2,1c0.1,0,0.2,0.1,0.5,0.3
					c0.2,0.1,0.5,0.3,0.8,0.4c0.3,0.2,0.5,0.3,0.7,0.4c0.2,0.1,0.3,0.2,0.4,0.2c0.8,0.4,1.4,1,1.9,1.6s0.7,1.4,0.7,2.4
					c0,0.9-0.2,1.7-0.6,2.5c-0.4,0.7-1,1.3-1.7,1.7S182.7,118.4,181.8,118.4z"/>
				<path class="st6" d="M192,118.4c-0.9,0-1.7-0.2-2.4-0.7s-1.3-1-1.7-1.8c-0.4-0.7-0.6-1.5-0.6-2.4v-1.1c0-0.1,0-0.1,0.1-0.1h2.7
					c0.1,0,0.1,0,0.1,0.1v1.1c0,0.5,0.2,1,0.5,1.4c0.4,0.4,0.8,0.6,1.3,0.6c0.5,0,0.9-0.2,1.3-0.6c0.4-0.4,0.5-0.8,0.5-1.3
					c0-0.6-0.4-1.1-1.2-1.5c-0.3-0.1-0.7-0.4-1.2-0.7c-0.5-0.3-1.1-0.6-1.5-0.9c-0.9-0.5-1.5-1.2-2-1.9c-0.4-0.8-0.6-1.7-0.6-2.6
					c0-0.9,0.2-1.7,0.6-2.4c0.4-0.7,1-1.3,1.7-1.7c0.7-0.4,1.5-0.6,2.3-0.6c0.8,0,1.6,0.2,2.3,0.6c0.7,0.4,1.3,1,1.7,1.7
					c0.4,0.7,0.6,1.5,0.6,2.4v2c0,0.1,0,0.1-0.1,0.1h-2.7c-0.1,0-0.1,0-0.1-0.1l0-2c0-0.6-0.2-1-0.5-1.4c-0.4-0.4-0.8-0.5-1.2-0.5
					c-0.5,0-0.9,0.2-1.3,0.6c-0.4,0.4-0.5,0.8-0.5,1.3c0,0.5,0.1,1,0.3,1.3c0.2,0.4,0.6,0.7,1.2,1c0.1,0,0.2,0.1,0.5,0.3
					c0.2,0.1,0.5,0.3,0.8,0.4c0.3,0.2,0.5,0.3,0.7,0.4c0.2,0.1,0.3,0.2,0.4,0.2c0.8,0.4,1.4,1,1.9,1.6s0.7,1.4,0.7,2.4
					c0,0.9-0.2,1.7-0.6,2.5c-0.4,0.7-1,1.3-1.7,1.7S192.9,118.4,192,118.4z"/>
			</g>
		</g>
	</g>
</g>
</svg>
