<?xml version="1.0" encoding="utf-8"?>
<!-- Generator: Adobe Illustrator 23.0.3, SVG Export Plug-In . SVG Version: 6.00 Build 0)  -->
<svg version="1.1" id="Layer_1" xmlns="http://www.w3.org/2000/svg" xmlns:xlink="http://www.w3.org/1999/xlink" x="0px" y="0px"
	 viewBox="0 0 300 300" style="enable-background:new 0 0 300 300;" xml:space="preserve">
<style type="text/css">
	.st0{fill:#E6E6E6;}
	.st1{fill:#66101F;stroke:#3F0A15;stroke-width:4;stroke-miterlimit:10;}
	.st2{fill:#FDF5AD;}
	.st3{fill:none;stroke:#3F0A15;stroke-width:4;stroke-miterlimit:10;}
	.st4{fill:#3F0A15;stroke:#3F0A15;stroke-width:4;stroke-miterlimit:10;}
	.st5{fill:#911933;}
	.st6{fill:#FFFFFF;}
	.st7{fill:#99C19D;stroke:#6B8F71;stroke-width:4;stroke-miterlimit:10;}
	.st8{fill:#83AA85;stroke:#6B8F71;stroke-width:4;stroke-miterlimit:10;}
	.st9{fill:none;stroke:#6B8F71;stroke-width:4;stroke-miterlimit:10;}
	.st10{fill:#6B8F71;stroke:#6B8F71;stroke-width:4;stroke-miterlimit:10;}
	.st11{fill:#647764;}
</style>
<g id="js_skill">
	<circle id="circle_x5F_bckgd_1_" class="st0" cx="150.5" cy="149.5" r="142.5"/>
	<g id="javascript-book">
		<g id="body">
			<rect id="bottom_cover_1_" x="88" y="84" class="st7" width="139" height="173.1"/>
			<path id="pages_x5F_book-thickness_1_" class="st2" d="M88,255c0,0-47-17,0-34h132v34H88z"/>
			<rect id="top_cover_1_" x="85" y="46" class="st8" width="135" height="173.1"/>
			<path id="spine-pages-arc_1_" class="st9" d="M85,219c0,0-43,18,3,38"/>
			<path id="spine_1_" class="st10" d="M85,46c0,0-10-2-18,2v184c0,0-3-8,18-13V46z"/>
		</g>
		<g id="title">
			<rect id="title_x5F_strip_1_" x="106" y="87" class="st11" width="95" height="46"/>
			<g>
				<path class="st6" d="M112.4,117.4c-0.8,0-1.6-0.2-2.2-0.6c-0.7-0.4-1.2-0.9-1.5-1.6c-0.4-0.7-0.6-1.4-0.6-2.3v-1
					c0-0.1,0-0.1,0.1-0.1h2.5c0.1,0,0.1,0,0.1,0.1v1c0,0.5,0.2,1,0.5,1.3c0.3,0.3,0.7,0.5,1.2,0.5c0.4,0,0.8-0.2,1.1-0.6
					c0.3-0.4,0.5-0.8,0.5-1.3V102c0-0.1,0-0.1,0.1-0.1h2.5c0.1,0,0.1,0,0.1,0.1l0,10.9c0,0.8-0.2,1.6-0.6,2.2
					c-0.4,0.7-0.9,1.2-1.6,1.6C113.9,117.2,113.2,117.4,112.4,117.4z"/>
				<path class="st6" d="M117.2,117.1l2.7-15.1c0-0.1,0.1-0.1,0.1-0.1h3.2c0.1,0,0.1,0,0.1,0.1l2.6,15.1c0,0.1,0,0.1-0.1,0.1h-2.4
					c-0.1,0-0.1,0-0.1-0.1l-0.2-1.6h-3l-0.2,1.6c0,0.1-0.1,0.1-0.1,0.1h-2.4C117.2,117.2,117.2,117.1,117.2,117.1z M120.5,113.1h2.1
					l-0.9-6.2l-0.1-0.8l-0.1,0.8L120.5,113.1z"/>
				<path class="st6" d="M128.4,117.2c-0.1,0-0.1,0-0.1-0.1l-3-15.1c0-0.1,0-0.1,0.1-0.1h2.5c0.1,0,0.1,0,0.1,0.1l1.8,10.1l1.8-10.1
					c0-0.1,0.1-0.1,0.1-0.1h2.5c0.1,0,0.1,0,0.1,0.1l-3,15.1c0,0.1-0.1,0.1-0.1,0.1H128.4z"/>
				<path class="st6" d="M133.8,117.1l2.7-15.1c0-0.1,0.1-0.1,0.1-0.1h3.2c0.1,0,0.1,0,0.1,0.1l2.6,15.1c0,0.1,0,0.1-0.1,0.1H140
					c-0.1,0-0.1,0-0.1-0.1l-0.2-1.6h-3l-0.2,1.6c0,0.1-0.1,0.1-0.1,0.1h-2.4C133.8,117.2,133.8,117.1,133.8,117.1z M137.1,113.1h2.1
					l-0.9-6.2l-0.1-0.8l-0.1,0.8L137.1,113.1z"/>
				<path class="st6" d="M147.2,117.4c-0.8,0-1.5-0.2-2.2-0.6c-0.7-0.4-1.2-0.9-1.6-1.6c-0.4-0.7-0.6-1.4-0.6-2.2v-1
					c0-0.1,0-0.1,0.1-0.1h2.5c0.1,0,0.1,0,0.1,0.1v1c0,0.5,0.2,0.9,0.5,1.2c0.3,0.3,0.7,0.5,1.2,0.5c0.5,0,0.8-0.2,1.2-0.5
					c0.3-0.4,0.5-0.8,0.5-1.2c0-0.5-0.4-1-1.1-1.4c-0.2-0.1-0.6-0.3-1.1-0.6c-0.5-0.3-1-0.5-1.4-0.8c-0.8-0.5-1.4-1.1-1.8-1.8
					c-0.4-0.7-0.6-1.5-0.6-2.4c0-0.8,0.2-1.6,0.6-2.2c0.4-0.7,0.9-1.2,1.6-1.6c0.7-0.4,1.4-0.6,2.1-0.6c0.8,0,1.5,0.2,2.1,0.6
					c0.7,0.4,1.2,0.9,1.6,1.6c0.4,0.7,0.6,1.4,0.6,2.2v1.8c0,0.1,0,0.1-0.1,0.1H149c-0.1,0-0.1,0-0.1-0.1l0-1.8
					c0-0.5-0.2-0.9-0.5-1.3c-0.3-0.3-0.7-0.5-1.1-0.5c-0.5,0-0.8,0.2-1.2,0.5c-0.3,0.3-0.5,0.8-0.5,1.2c0,0.5,0.1,0.9,0.3,1.2
					s0.6,0.6,1.1,0.9c0.1,0,0.2,0.1,0.4,0.2c0.2,0.1,0.4,0.2,0.7,0.4c0.2,0.1,0.5,0.3,0.7,0.4c0.2,0.1,0.3,0.2,0.4,0.2
					c0.7,0.4,1.3,0.9,1.7,1.5c0.4,0.6,0.6,1.3,0.6,2.2c0,0.8-0.2,1.6-0.6,2.3c-0.4,0.7-0.9,1.2-1.6,1.6
					C148.7,117.2,148,117.4,147.2,117.4z"/>
				<path class="st6" d="M157.1,117.4c-0.8,0-1.5-0.2-2.2-0.6c-0.7-0.4-1.2-0.9-1.6-1.6c-0.4-0.7-0.6-1.4-0.6-2.3l0-6.9
					c0-0.8,0.2-1.5,0.6-2.2s0.9-1.2,1.5-1.6c0.7-0.4,1.4-0.6,2.2-0.6c0.8,0,1.5,0.2,2.2,0.6c0.6,0.4,1.2,0.9,1.5,1.6
					c0.4,0.7,0.6,1.4,0.6,2.2v1c0,0.1,0,0.1-0.1,0.1h-2.5c-0.1,0-0.1,0-0.1-0.1v-1c0-0.5-0.2-0.9-0.5-1.3c-0.3-0.4-0.7-0.5-1.2-0.5
					c-0.5,0-0.9,0.2-1.2,0.5c-0.3,0.4-0.4,0.8-0.4,1.2v6.9c0,0.5,0.2,1,0.5,1.3c0.3,0.3,0.7,0.5,1.2,0.5c0.5,0,0.9-0.2,1.2-0.6
					s0.5-0.8,0.5-1.3v-1c0-0.1,0-0.1,0.1-0.1h2.5c0.1,0,0.1,0,0.1,0.1v1c0,0.8-0.2,1.6-0.6,2.3c-0.4,0.7-0.9,1.2-1.6,1.6
					C158.6,117.2,157.9,117.4,157.1,117.4z"/>
				<path class="st6" d="M163.1,117.2c-0.1,0-0.1,0-0.1-0.1l0-15.1c0-0.1,0-0.1,0.1-0.1h4.4c0.8,0,1.5,0.2,2.2,0.6
					c0.7,0.4,1.2,0.9,1.6,1.6c0.4,0.7,0.6,1.4,0.6,2.2c0,0.5-0.1,1-0.2,1.5c-0.2,0.4-0.4,0.8-0.6,1.1c-0.2,0.3-0.4,0.5-0.6,0.7
					c0.8,0.9,1.2,1.9,1.2,3.1l0,4.5c0,0.1,0,0.1-0.1,0.1h-2.5c-0.1,0-0.1,0-0.1-0.1v-4.6c0-0.5-0.2-1-0.6-1.4
					c-0.4-0.4-0.8-0.6-1.4-0.6h-1.5l0,6.5c0,0.1,0,0.1-0.1,0.1H163.1z M165.7,108h1.9c0.5,0,0.9-0.2,1.2-0.5
					c0.4-0.3,0.5-0.7,0.5-1.2c0-0.5-0.2-0.9-0.5-1.2s-0.8-0.5-1.2-0.5h-1.9V108z"/>
				<path class="st6" d="M173.7,117.2c-0.1,0-0.1,0-0.1-0.1l0-15.1c0-0.1,0-0.1,0.1-0.1h2.5c0.1,0,0.1,0,0.1,0.1l0,15.1
					c0,0.1,0,0.1-0.1,0.1H173.7z"/>
				<path class="st6" d="M178.4,117.2c-0.1,0-0.1,0-0.1-0.1l0-15.1c0-0.1,0-0.1,0.1-0.1h4.2c1.3,0,2.4,0.4,3.2,1.2
					c0.8,0.8,1.2,1.9,1.2,3.3c0,1-0.2,1.9-0.6,2.7c-0.4,0.8-0.9,1.3-1.6,1.8c-0.7,0.4-1.4,0.6-2.2,0.6h-1.7v5.5c0,0.1,0,0.1-0.1,0.1
					H178.4z M180.9,108.9h1.7c0.5,0,0.9-0.2,1.2-0.7c0.3-0.4,0.5-1,0.5-1.7c0-0.6-0.2-1-0.5-1.4c-0.3-0.4-0.7-0.5-1.3-0.5l-1.7,0
					V108.9z"/>
				<path class="st6" d="M190.5,117.2c-0.1,0-0.1,0-0.1-0.1v-12.5h-2.9c-0.1,0-0.1,0-0.1-0.1l0-2.5c0-0.1,0-0.1,0.1-0.1h8.4
					c0.1,0,0.1,0,0.1,0.1v2.5c0,0.1,0,0.1-0.1,0.1H193l0,12.5c0,0.1,0,0.1-0.1,0.1H190.5z"/>
			</g>
		</g>
	</g>
</g>
</svg>
