<?xml version="1.0" encoding="utf-8"?>
<!-- Generator: Adobe Illustrator 23.0.3, SVG Export Plug-In . SVG Version: 6.00 Build 0)  -->
<svg version="1.1" id="Layer_1" xmlns="http://www.w3.org/2000/svg" xmlns:xlink="http://www.w3.org/1999/xlink" x="0px" y="0px"
	 viewBox="0 0 300 300" style="enable-background:new 0 0 300 300;" xml:space="preserve">
<style type="text/css">
	.st0{fill:#E6E6E6;}
	.st1{fill:#66101F;stroke:#3F0A15;stroke-width:4;stroke-miterlimit:10;}
	.st2{fill:#FDF5AD;}
	.st3{fill:none;stroke:#3F0A15;stroke-width:4;stroke-miterlimit:10;}
	.st4{fill:#3F0A15;stroke:#3F0A15;stroke-width:4;stroke-miterlimit:10;}
	.st5{fill:#911933;}
	.st6{fill:#FFFFFF;}
	.st7{fill:#99C19D;stroke:#6B8F71;stroke-width:4;stroke-miterlimit:10;}
	.st8{fill:#83AA85;stroke:#6B8F71;stroke-width:4;stroke-miterlimit:10;}
	.st9{fill:none;stroke:#6B8F71;stroke-width:4;stroke-miterlimit:10;}
	.st10{fill:#6B8F71;stroke:#6B8F71;stroke-width:4;stroke-miterlimit:10;}
	.st11{fill:#647764;}
</style>
<g id="php_skill">
	<circle id="circle_x5F_bckgd_2_" class="st0" cx="149.5" cy="149.5" r="142.5"/>
	<g id="php-book">
		<g id="body_2_">
			<rect id="bottom_cover_2_" x="87" y="84" class="st1" width="139" height="173.1"/>
			<path id="pages_x5F_book-thickness_2_" class="st2" d="M87,255c0,0-47-17,0-34h132v34H87z"/>
			<rect id="top_cover_2_" x="84" y="46" class="st1" width="135" height="173.1"/>
			<path id="spine-pages-arc_2_" class="st3" d="M84,219c0,0-43,18,3,38"/>
			<path id="spine_2_" class="st4" d="M84,46c0,0-10-2-18,2v184c0,0-3-8,18-13V46z"/>
		</g>
		<g id="title_2_">
			<rect id="title_x5F_strip_2_" x="105" y="87" class="st5" width="95" height="46"/>
			<g>
				<path class="st6" d="M135,117.2c-0.1,0-0.1,0-0.1-0.1l0-16.5c0-0.1,0-0.1,0.1-0.1h4.6c1.5,0,2.6,0.4,3.5,1.3
					c0.9,0.9,1.3,2.1,1.3,3.6c0,1.1-0.2,2.1-0.7,3c-0.4,0.8-1,1.5-1.8,1.9c-0.7,0.4-1.5,0.7-2.4,0.7h-1.8v6c0,0.1,0,0.1-0.1,0.1H135
					z M137.8,108.1h1.8c0.5,0,1-0.2,1.3-0.7c0.4-0.5,0.6-1.1,0.6-1.9c0-0.6-0.2-1.1-0.5-1.5c-0.3-0.4-0.8-0.6-1.4-0.6l-1.8,0V108.1z
					"/>
				<path class="st6" d="M145.9,117.2c-0.1,0-0.1,0-0.1-0.1l0-16.5c0-0.1,0-0.1,0.1-0.1h2.7c0.1,0,0.1,0,0.1,0.1l0,6.5h3.6v-6.5
					c0-0.1,0-0.1,0.1-0.1h2.7c0.1,0,0.1,0,0.1,0.1l0,16.5c0,0.1,0,0.1-0.1,0.1h-2.7c-0.1,0-0.1,0-0.1-0.1V110h-3.6v7.1
					c0,0.1,0,0.1-0.1,0.1H145.9z"/>
				<path class="st6" d="M157.4,117.2c-0.1,0-0.1,0-0.1-0.1l0-16.5c0-0.1,0-0.1,0.1-0.1h4.6c1.5,0,2.6,0.4,3.5,1.3
					c0.9,0.9,1.3,2.1,1.3,3.6c0,1.1-0.2,2.1-0.7,3c-0.4,0.8-1,1.5-1.8,1.9c-0.7,0.4-1.5,0.7-2.4,0.7h-1.8v6c0,0.1,0,0.1-0.1,0.1
					H157.4z M160.2,108.1h1.8c0.5,0,1-0.2,1.3-0.7c0.4-0.5,0.6-1.1,0.6-1.9c0-0.6-0.2-1.1-0.5-1.5c-0.3-0.4-0.8-0.6-1.4-0.6l-1.8,0
					V108.1z"/>
			</g>
		</g>
	</g>
</g>
</svg>
