<svg id="Layer_1" data-name="Layer 1" xmlns="http://www.w3.org/2000/svg" xmlns:xlink="http://www.w3.org/1999/xlink" viewBox="0 0 800 487"><defs><style>.cls-1,.cls-11,.cls-14,.cls-15,.cls-18,.cls-32,.cls-34,.cls-5,.cls-7{fill:none;}.cls-2{clip-path:url(#clip-path);}.cls-3{fill:#f9dfc7;}.cls-4{fill:#9b7c5a;}.cls-5,.cls-7{stroke:#603813;}.cls-10,.cls-11,.cls-13,.cls-14,.cls-15,.cls-16,.cls-17,.cls-18,.cls-19,.cls-21,.cls-22,.cls-24,.cls-26,.cls-28,.cls-33,.cls-34,.cls-35,.cls-36,.cls-37,.cls-38,.cls-39,.cls-40,.cls-41,.cls-42,.cls-43,.cls-5,.cls-7,.cls-9{stroke-miterlimit:10;}.cls-11,.cls-22,.cls-24,.cls-26,.cls-28,.cls-30,.cls-32,.cls-33,.cls-34,.cls-35,.cls-36,.cls-42,.cls-5{stroke-width:2px;}.cls-6{fill:#fcd29f;}.cls-16,.cls-18,.cls-19,.cls-7,.cls-9{stroke-width:0.75px;}.cls-10,.cls-8{fill:#410b13;}.cls-12,.cls-13,.cls-9{fill:#eae0d6;}.cls-13,.cls-16,.cls-18,.cls-19,.cls-9{stroke:#cec5be;}.cls-10{stroke:#23060c;stroke-width:0.25px;}.cls-11,.cls-14,.cls-15{stroke:#a09c98;}.cls-14,.cls-37,.cls-38,.cls-39,.cls-40,.cls-43{stroke-width:3px;}.cls-16{fill:#d7e9f4;}.cls-17{fill:#8d766e;stroke:#6d5c57;stroke-width:0.5px;}.cls-19{fill:#cec5be;}.cls-20{fill:#eacf60;}.cls-21{fill:#717177;}.cls-21,.cls-22{stroke:#14131c;}.cls-22{fill:#36344f;}.cls-23{fill:#75747f;}.cls-24{fill:#ef7918;stroke:#a04b12;}.cls-25{fill:#ffa05f;}.cls-26{fill:#990e0e;stroke:#560707;}.cls-27{fill:#c92020;}.cls-28{fill:#31285e;stroke:#15122d;}.cls-29{fill:#473e89;}.cls-30{fill:#f75d4f;stroke:#bf433d;}.cls-30,.cls-31,.cls-32{stroke-miterlimit:1;}.cls-31{fill:#29b715;stroke:#279114;}.cls-32{stroke:#398409;}.cls-33{fill:#824b33;stroke:#5e3425;}.cls-34{stroke:#383433;}.cls-35{fill:#3f3e3d;stroke:#191918;}.cls-36{fill:#bf8c19;stroke:#996d16;}.cls-37,.cls-40{fill:#d7dbd8;}.cls-37,.cls-38{stroke:#849b8f;}.cls-38{fill:#a3b7ad;}.cls-39{fill:#c1d1c8;}.cls-39,.cls-40{stroke:#9eafa5;}.cls-41,.cls-42{fill:#2f2f2f;}.cls-41,.cls-42,.cls-43{stroke:#0c0c0c;}.cls-41{stroke-width:2.5px;}.cls-43{fill:#c9a409;}</style><clipPath id="clip-path"><rect class="cls-1" x="-1" width="800" height="487"/></clipPath></defs><title>Artboard 1</title><g class="cls-2"><rect id="background" class="cls-3" x="-1" width="800" height="487"/><g id="corkboard"><g id="Cork_board_body" data-name="Cork board body"><rect class="cls-4" x="545" y="127.53" width="199.67" height="116.4"/><rect class="cls-5" x="545" y="127.53" width="199.67" height="116.4"/><rect class="cls-6" x="558.91" y="138.9" width="171.85" height="93.65"/><rect class="cls-7" x="558.91" y="138.9" width="171.85" height="93.65"/></g><g id="corkboard_items" data-name="corkboard items"><g id="Item-one"><polygon id="note-one" class="cls-8" points="579.11 176.73 555.83 171.73 562.89 147.65 586.17 152.65 579.11 176.73"/><ellipse id="pin" class="cls-8" cx="574" cy="150.64" rx="2" ry="1.71"/><line id="fake-text-one" class="cls-8" x1="564.47" y1="156.82" x2="580.82" y2="160.33"/><line id="fake-text-two" class="cls-8" x1="563.5" y1="160.14" x2="579.85" y2="163.65"/><line id="fake-text-three" class="cls-8" x1="562.52" y1="163.46" x2="572.09" y2="165.51"/><polygon id="note-one-2" data-name="note-one" class="cls-9" points="579.11 176.73 555.83 171.73 562.89 147.65 586.17 152.65 579.11 176.73"/><ellipse id="pin-2" data-name="pin" class="cls-10" cx="574" cy="150.64" rx="2" ry="1.71"/><line id="fake-text-one-2" data-name="fake-text-one" class="cls-11" x1="564.47" y1="156.82" x2="580.82" y2="160.33"/><line id="fake-text-two-2" data-name="fake-text-two" class="cls-11" x1="563.5" y1="160.14" x2="579.85" y2="163.65"/><line id="fake-text-three-2" data-name="fake-text-three" class="cls-11" x1="562.52" y1="163.46" x2="572.09" y2="165.51"/></g><g id="item-two"><polygon id="note-two" class="cls-12" points="734.57 225.45 692.75 228.77 686.66 172.53 728.48 169.21 734.57 225.45"/><ellipse id="pin-3" data-name="pin" class="cls-12" cx="708.02" cy="171.26" rx="2" ry="1.71"/><line id="fake-title" class="cls-12" x1="696.41" y1="180.18" x2="721.92" y2="178.16"/><line id="fake-text-one-3" data-name="fake-text-one" class="cls-12" x1="696.14" y1="190.68" x2="712.1" y2="189.42"/><polygon id="check-box-one" class="cls-12" points="726.26 190.44 720.29 190.92 719.82 186.65 725.8 186.18 726.26 190.44"/><line id="fake-text-two-3" data-name="fake-text-two" class="cls-12" x1="697.07" y1="199.21" x2="713.03" y2="197.94"/><polygon id="check-box-two" class="cls-12" points="727.18 198.96 721.21 199.44 720.75 195.18 726.72 194.7 727.18 198.96"/><line id="fake-text-three-3" data-name="fake-text-three" class="cls-12" x1="697.99" y1="207.73" x2="713.95" y2="206.46"/><polygon id="check-box-three" class="cls-12" points="728.11 207.49 722.13 207.96 721.67 203.7 727.64 203.22 728.11 207.49"/><polygon id="note-two-2" data-name="note-two" class="cls-13" points="734.57 225.45 692.75 228.77 686.66 172.53 728.48 169.21 734.57 225.45"/><ellipse id="pin-4" data-name="pin" class="cls-10" cx="708.02" cy="171.26" rx="2" ry="1.71"/><line id="fake-title-2" data-name="fake-title" class="cls-14" x1="696.41" y1="180.18" x2="721.92" y2="178.16"/><line id="fake-text-one-4" data-name="fake-text-one" class="cls-11" x1="696.14" y1="190.68" x2="712.1" y2="189.42"/><polygon id="check-box-one-2" data-name="check-box-one" class="cls-15" points="726.26 190.44 720.29 190.92 719.82 186.65 725.8 186.18 726.26 190.44"/><line id="fake-text-two-4" data-name="fake-text-two" class="cls-11" x1="697.07" y1="199.21" x2="713.03" y2="197.94"/><polygon id="check-box-two-2" data-name="check-box-two" class="cls-15" points="727.18 198.96 721.21 199.44 720.75 195.18 726.72 194.7 727.18 198.96"/><line id="fake-text-three-4" data-name="fake-text-three" class="cls-11" x1="697.99" y1="207.73" x2="713.95" y2="206.46"/><polygon id="check-box-three-2" data-name="check-box-three" class="cls-15" points="728.11 207.49 722.13 207.96 721.67 203.7 727.64 203.22 728.11 207.49"/></g><g id="picture"><rect id="background-2" data-name="background" class="cls-16" x="604" y="152.35" width="39.5" height="30.38"/><g id="mountain-two"><polygon id="mountain-two-2" data-name="mountain-two" class="cls-17" points="612.76 165.34 619.44 176.67 606.07 176.67 612.76 165.34"/><g id="mountain-top-path"><polyline class="cls-18" points="611.59 165.92 612.07 168.07 613.39 166.31 614.07 168.47"/></g><path id="mountain-top" class="cls-19" d="M612.1,166.56l.81-1.76,1.26,2.45-.9.91-1.17-1.6-.27-.24h0v.77"/></g><g id="mountain-one"><polygon id="mountain-one-2" data-name="mountain-one" class="cls-17" points="618.5 169 624 178.45 613 178.45 618.5 169"/><g id="mountain-top-path-2" data-name="mountain-top-path"><polyline class="cls-18" points="617.58 169.32 617.9 171.43 619.06 169.64 619.58 171.78"/></g><path id="mountain-top-2" data-name="mountain-top" class="cls-19" d="M618,170l.67-1.47,1,2-.74.76L618,170l-.22-.2h0v.64"/></g><ellipse id="pin-5" data-name="pin" class="cls-10" cx="624" cy="152.35" rx="2" ry="1.71"/><ellipse id="sun" class="cls-20" cx="635" cy="161.76" rx="3" ry="2.57"/></g><g id="Item-three"><polygon id="note-one-3" data-name="note-one" class="cls-8" points="644.74 233.65 620.77 232.47 622.43 207.69 646.39 208.87 644.74 233.65"/><ellipse id="pin-6" data-name="pin" class="cls-8" cx="634" cy="208.84" rx="2" ry="1.71"/><line id="fake-text-one-5" data-name="fake-text-one" class="cls-8" x1="625.99" y1="216.44" x2="642.83" y2="217.26"/><line id="fake-text-two-5" data-name="fake-text-two" class="cls-8" x1="625.77" y1="219.86" x2="642.6" y2="220.68"/><line id="fake-text-three-5" data-name="fake-text-three" class="cls-8" x1="625.54" y1="223.27" x2="635.38" y2="223.76"/><polygon id="note-one-4" data-name="note-one" class="cls-9" points="644.74 233.65 620.77 232.47 622.43 207.69 646.39 208.87 644.74 233.65"/><ellipse id="pin-7" data-name="pin" class="cls-10" cx="634" cy="208.84" rx="2" ry="1.71"/><line id="fake-text-one-6" data-name="fake-text-one" class="cls-11" x1="625.99" y1="216.44" x2="642.83" y2="217.26"/><line id="fake-text-two-6" data-name="fake-text-two" class="cls-11" x1="625.77" y1="219.86" x2="642.6" y2="220.68"/><line id="fake-text-three-6" data-name="fake-text-three" class="cls-11" x1="625.54" y1="223.27" x2="635.38" y2="223.76"/></g><g id="Item-four"><polygon id="note-one-5" data-name="note-one" class="cls-8" points="668.74 216.53 644.77 215.35 646.43 190.57 670.39 191.75 668.74 216.53"/><ellipse id="pin-8" data-name="pin" class="cls-8" cx="658" cy="191.72" rx="2" ry="1.71"/><line id="fake-text-one-7" data-name="fake-text-one" class="cls-8" x1="649.99" y1="199.32" x2="666.83" y2="200.15"/><line id="fake-text-two-7" data-name="fake-text-two" class="cls-8" x1="649.77" y1="202.74" x2="666.6" y2="203.56"/><line id="fake-text-three-7" data-name="fake-text-three" class="cls-8" x1="649.54" y1="206.16" x2="659.38" y2="206.64"/><polygon id="note-one-6" data-name="note-one" class="cls-9" points="668.74 216.53 644.77 215.35 646.43 190.57 670.39 191.75 668.74 216.53"/><ellipse id="pin-9" data-name="pin" class="cls-10" cx="658" cy="191.72" rx="2" ry="1.71"/><line id="fake-text-one-8" data-name="fake-text-one" class="cls-11" x1="649.99" y1="199.32" x2="666.83" y2="200.15"/><line id="fake-text-two-8" data-name="fake-text-two" class="cls-11" x1="649.77" y1="202.74" x2="666.6" y2="203.56"/><line id="fake-text-three-8" data-name="fake-text-three" class="cls-11" x1="649.54" y1="206.16" x2="659.38" y2="206.64"/></g></g></g><g id="chair"><g id="leg"><rect id="spine" class="cls-21" x="274" y="451.91" width="13.5" height="115.12"/></g><g id="seat"><rect id="seat_body" data-name="seat body" class="cls-22" x="212" y="484.43" width="139" height="31.67" rx="12"/><path id="shadow-top" class="cls-23" d="M231,485.29s40,16.26,101,0Z"/></g><path id="backrest" class="cls-22" d="M334.53,454.48h-106c-5.23,0-9.5-4.55-9.5-10.1V418.24q0-4.55,0-9.56c1-30.38,3-74.88,44.07-82.59a91.44,91.44,0,0,1,9.32-1.86c22-3.19,45.51,2.38,56.91,19.57a70.82,70.82,0,0,1,4.16,6.41,65.45,65.45,0,0,1,8.83,27.28,67.33,67.33,0,0,1,.81,7.89,61.79,61.79,0,0,1,.46,8.65c.09,2.67.15,5.24.23,7.71s.11,4.77.24,7v35.66C344,449.93,339.75,454.48,334.53,454.48Z"/></g><g id="books"><g id="orange_book" data-name="orange book"><rect id="book" class="cls-24" x="46" y="405.26" width="109" height="14.98"/><rect id="book_spine" data-name="book spine" class="cls-25" x="67" y="409.97" width="67" height="6.85"/></g><g id="red_book" data-name="red book"><rect id="book-2" data-name="book" class="cls-26" x="35.5" y="388.14" width="109" height="16.26"/><rect id="book_spine-2" data-name="book spine" class="cls-27" x="54" y="392.85" width="74" height="6.85"/></g><g id="navy_blue_book" data-name="navy blue book"><rect id="book-3" data-name="book" class="cls-28" x="40.5" y="370.17" width="109" height="16.26"/><rect id="book_spine-3" data-name="book spine" class="cls-29" x="53" y="374.88" width="87" height="6.85"/></g></g><g id="potted_plant" data-name="potted plant"><g id="pot"><polygon id="body" class="cls-30" points="418.8 390.96 405.35 402.08 410.49 420.07 427.11 420.07 432.24 402.08 418.8 390.96"/><rect id="top" class="cls-30" x="401.69" y="390.96" width="33.31" height="12.75"/></g><g id="plant"><ellipse id="leaf-four" class="cls-31" cx="422.13" cy="345.85" rx="13.9" ry="3.51" transform="translate(-123.57 342.56) rotate(-38.98)"/><ellipse id="leaf-three" class="cls-31" cx="410.2" cy="325.02" rx="3.39" ry="8.3" transform="translate(-112.52 299.2) rotate(-35.56)"/><ellipse id="leaf-two" class="cls-31" cx="422.9" cy="311.01" rx="5.03" ry="12.17" transform="translate(-71.78 135.32) rotate(-16.78)"/><ellipse id="leaf-one" class="cls-31" cx="432.86" cy="318.69" rx="6.6" ry="2.51" transform="translate(-98.94 396.9) rotate(-44.73)"/><path id="stalk" class="cls-32" d="M418.52,390.1c.14-13.51-1.29-19.5-6.32-34.91s-.72-21.39,5.74-25.67S428,322.67,428,322.67"/></g></g><g id="body-2" data-name="body"><g id="head"><ellipse id="head-shape" class="cls-33" cx="284.25" cy="296.35" rx="35.75" ry="41.3"/><path id="right-eye" class="cls-34" d="M295,290.15s6-7.71,12,0"/><path id="left-eye" class="cls-34" d="M263,291s6-7.7,12,0"/><path id="hair-puff" class="cls-35" d="M249,291.86S248,285,256,279s4-9.42,4-9.42-2-1.71,5-4.27,7-6,9-6,4-3.42,10,0c0,0,4-3.42,6-1.71s6,4.28,7,4.28-1,5.14,5,4.28,6,2.57,7,5.14-1,6,2,6.84,7,8.56,9,8.56,0-9.41,0-12-5-8.56-3-8.56-8-2.57-4-5.13c0,0,8,3.42,10-1.72s1-1.71,5-4.28.1-8.1,2-10.27c3-3.42-4-10.27-5-12s5-11.13,1-12.84c-5.06-2.16-8-13.69-13-9.41-1,.85-10-9.42-13-5.14,0,0-7-4.28-11-1.71s-20-.85-15,3.42c2.55,2.19-9.71-3.08-13,.86-5,6-4-1.71-10,3.42-3.61,3.09-5,.86-10,3.43s-2,2.57-6,6.84,0,16.27,0,16.27-4,8.56,1,12-3,1.71,2,6.85,3,.85,7,1.71,1,4.28,5,6,11-4.28,2,8.56C250.37,275.35,249,291.86,249,291.86Z"/><rect id="neck" class="cls-33" x="269" y="332.94" width="31" height="23.11"/></g><path id="arms" class="cls-36" d="M276.13,341.05l-69.25,58.76c-9.61,8.15-3.84,23.85,8.76,23.85h138.5c12.59,0,18.36-15.7,8.75-23.85l-69.25-58.76A13.52,13.52,0,0,0,276.13,341.05Z"/><path id="waist-and-butt" class="cls-36" d="M324.47,489l-44,.56L238,488.51c-8.71-2.12-11.54-3.18-9.17-8.69l18.06-41.92a6.87,6.87,0,0,1,4.93-4h3c.37.08.61-.14,1,0h24.87c.33,0,.66,0,1,0l24.87.76c8.08,0,7.79.28,9.24,3.67l17.9,41.95C336,485.85,336.51,488,324.47,489Z"/></g><g id="computer"><rect id="large-back" class="cls-37" x="236.14" y="259.77" width="90.72" height="178" rx="17.28" transform="translate(630.27 67.27) rotate(90)"/><rect id="medium-back" class="cls-38" x="199.5" y="309.4" width="164" height="78.74" rx="10.81"/><rect id="small-back" class="cls-39" x="258.5" y="333.37" width="51" height="60.77"/><path id="spinal_support" data-name="spinal support" class="cls-40" d="M279.15,359.51l-8,47.91a4.77,4.77,0,0,0,4.69,5.55h16.09a4.76,4.76,0,0,0,4.69-5.55l-8-47.91A4.76,4.76,0,0,0,279.15,359.51Z"/><rect id="base" class="cls-40" x="216.5" y="409.54" width="132" height="10.27"/><rect id="base-two" class="cls-39" x="251.5" y="413.82" width="63" height="5.14"/></g><g id="table_structure" data-name="table structure"><rect id="table-top" class="cls-41" x="35" y="421.95" width="427.5" height="15.41"/><rect id="table-support" class="cls-41" x="50.5" y="438.64" width="392" height="11.98"/><rect id="left-table-leg" class="cls-42" x="84.5" y="455.76" width="10" height="97.14"/><rect id="right-table-leg" class="cls-42" x="394" y="456.19" width="10" height="96.72"/><rect id="right-gold-leg-detail" class="cls-43" x="387.5" y="451.48" width="23" height="10.27" rx="5.14"/><rect id="left-gold-leg-detail" class="cls-43" x="77.5" y="451.48" width="23" height="10.27" rx="5.14"/></g></g></svg>