<?xml version="1.0" encoding="utf-8"?>
<!-- Generator: Adobe Illustrator 23.0.3, SVG Export Plug-In . SVG Version: 6.00 Build 0)  -->
<svg version="1.1" id="Layer_1" xmlns="http://www.w3.org/2000/svg" xmlns:xlink="http://www.w3.org/1999/xlink" x="0px" y="0px"
	 viewBox="0 0 300 300" style="enable-background:new 0 0 300 300;" xml:space="preserve">
<style type="text/css">
	.st0{fill:#E6E6E6;}
	.st1{fill:#66101F;stroke:#3F0A15;stroke-width:4;stroke-miterlimit:10;}
	.st2{fill:#FDF5AD;}
	.st3{fill:none;stroke:#3F0A15;stroke-width:4;stroke-miterlimit:10;}
	.st4{fill:#3F0A15;stroke:#3F0A15;stroke-width:4;stroke-miterlimit:10;}
	.st5{fill:#911933;}
	.st6{fill:#FFFFFF;}
	.st7{fill:#99C19D;stroke:#6B8F71;stroke-width:4;stroke-miterlimit:10;}
	.st8{fill:#83AA85;stroke:#6B8F71;stroke-width:4;stroke-miterlimit:10;}
	.st9{fill:none;stroke:#6B8F71;stroke-width:4;stroke-miterlimit:10;}
	.st10{fill:#6B8F71;stroke:#6B8F71;stroke-width:4;stroke-miterlimit:10;}
	.st11{fill:#647764;}
</style>
<g id="python_skill">
	<circle id="circle_x5F_bckgd_3_" class="st0" cx="150.5" cy="150.5" r="142.5"/>
	<g id="python-book">
		<g id="body_3_">
			<rect id="bottom_cover_3_" x="88" y="85" class="st8" width="139" height="173.1"/>
			<path id="pages_x5F_book-thickness_3_" class="st2" d="M88,256c0,0-47-17,0-34h132v34H88z"/>
			<rect id="top_cover_3_" x="85" y="47" class="st8" width="135" height="173.1"/>
			<path id="spine-pages-arc_3_" class="st9" d="M85,220c0,0-43,18,3,38"/>
			<path id="spine_3_" class="st10" d="M85,47c0,0-10-2-18,2v184c0,0-3-8,18-13V47z"/>
		</g>
		<g id="title_3_">
			<rect id="title_x5F_strip_3_" x="106" y="88" class="st11" width="95" height="46"/>
			<g>
				<path class="st6" d="M124,118.2c-0.1,0-0.1,0-0.1-0.1l0-16.5c0-0.1,0-0.1,0.1-0.1h4.6c1.5,0,2.6,0.4,3.5,1.3s1.3,2.1,1.3,3.6
					c0,1.1-0.2,2.1-0.7,3s-1,1.5-1.8,1.9s-1.5,0.7-2.4,0.7h-1.8v6c0,0.1,0,0.1-0.1,0.1H124z M126.8,109.1h1.8c0.5,0,1-0.2,1.3-0.7
					c0.4-0.5,0.6-1.1,0.6-1.9c0-0.6-0.2-1.1-0.5-1.5c-0.3-0.4-0.8-0.6-1.4-0.6l-1.8,0V109.1z"/>
				<path class="st6" d="M136.6,118.2C136.6,118.2,136.5,118.1,136.6,118.2l0-6.9l-3.2-9.7c0-0.1,0-0.1,0.1-0.1h2.7
					c0.1,0,0.1,0,0.1,0.1l1.8,6.5l1.8-6.5c0-0.1,0.1-0.1,0.1-0.1h2.7c0.1,0,0.1,0,0.1,0.1l-3.2,9.6l0,6.9c0,0.1,0,0.1-0.1,0.1H136.6
					z"/>
				<path class="st6" d="M146.4,118.2c-0.1,0-0.1,0-0.1-0.1v-13.7h-3.1c-0.1,0-0.1,0-0.1-0.1l0-2.7c0-0.1,0-0.1,0.1-0.1h9.1
					c0.1,0,0.1,0,0.1,0.1v2.7c0,0.1,0,0.1-0.1,0.1h-3.1l0,13.7c0,0.1,0,0.1-0.1,0.1H146.4z"/>
				<path class="st6" d="M153.7,118.2c-0.1,0-0.1,0-0.1-0.1l0-16.5c0-0.1,0-0.1,0.1-0.1h2.7c0.1,0,0.1,0,0.1,0.1l0,6.5h3.6v-6.5
					c0-0.1,0-0.1,0.1-0.1h2.7c0.1,0,0.1,0,0.1,0.1l0,16.5c0,0.1,0,0.1-0.1,0.1h-2.7c-0.1,0-0.1,0-0.1-0.1V111h-3.6v7.1
					c0,0.1,0,0.1-0.1,0.1H153.7z"/>
				<path class="st6" d="M169.4,118.4c-0.9,0-1.7-0.2-2.4-0.7c-0.7-0.4-1.3-1-1.7-1.8c-0.4-0.7-0.6-1.5-0.6-2.4l0-7.6
					c0-0.9,0.2-1.7,0.6-2.4c0.4-0.7,1-1.3,1.7-1.7c0.7-0.4,1.5-0.6,2.4-0.6c0.9,0,1.6,0.2,2.4,0.6c0.7,0.4,1.3,1,1.7,1.7
					c0.4,0.7,0.6,1.5,0.6,2.4l0,7.6c0,0.9-0.2,1.7-0.6,2.4s-1,1.3-1.7,1.8C171.1,118.2,170.3,118.4,169.4,118.4z M169.4,115.5
					c0.5,0,0.9-0.2,1.3-0.6s0.5-0.8,0.5-1.3l0-7.6c0-0.5-0.2-1-0.5-1.3c-0.3-0.4-0.8-0.6-1.3-0.6c-0.5,0-0.9,0.2-1.3,0.5
					c-0.4,0.4-0.5,0.8-0.5,1.4v7.6c0,0.5,0.2,1,0.5,1.4C168.5,115.3,168.9,115.5,169.4,115.5z"/>
				<path class="st6" d="M176.2,118.2c-0.1,0-0.2-0.1-0.2-0.2l0-16.3c0-0.1,0.1-0.2,0.2-0.2h2.2l4.1,9.5l-0.1-9.3
					c0-0.1,0.1-0.2,0.2-0.2h2.4c0.1,0,0.1,0.1,0.1,0.2l0,16.4c0,0.1,0,0.1-0.1,0.1h-2.1l-4.2-8.8l0.2,8.6c0,0.1-0.1,0.2-0.2,0.2
					H176.2z"/>
			</g>
		</g>
	</g>
</g>
</svg>
