<?xml version="1.0" encoding="utf-8"?>
<!-- Generator: Adobe Illustrator 23.0.3, SVG Export Plug-In . SVG Version: 6.00 Build 0)  -->
<svg version="1.1" id="Layer_1" xmlns="http://www.w3.org/2000/svg" xmlns:xlink="http://www.w3.org/1999/xlink" x="0px" y="0px"
	 viewBox="0 0 300 300" style="enable-background:new 0 0 300 300;" xml:space="preserve">
<style type="text/css">
	.st0{fill:#E6E6E6;}
	.st1{fill:#66101F;stroke:#3F0A15;stroke-width:4;stroke-miterlimit:10;}
	.st2{fill:#FDF5AD;}
	.st3{fill:none;stroke:#3F0A15;stroke-width:4;stroke-miterlimit:10;}
	.st4{fill:#3F0A15;stroke:#3F0A15;stroke-width:4;stroke-miterlimit:10;}
	.st5{fill:#911933;}
	.st6{fill:#FFFFFF;}
	.st7{fill:#99C19D;stroke:#6B8F71;stroke-width:4;stroke-miterlimit:10;}
	.st8{fill:#83AA85;stroke:#6B8F71;stroke-width:4;stroke-miterlimit:10;}
	.st9{fill:none;stroke:#6B8F71;stroke-width:4;stroke-miterlimit:10;}
	.st10{fill:#6B8F71;stroke:#6B8F71;stroke-width:4;stroke-miterlimit:10;}
	.st11{fill:#647764;}
</style>
<g id="ui-uxskill">
	<circle id="circle_x5F_bckgd_5_" class="st0" cx="150.5" cy="150.5" r="142.5"/>
	<g id="ui_x2F_ux-book">
		<g id="body_5_">
			<rect id="bottom_cover_5_" x="88" y="85" class="st8" width="139" height="173.1"/>
			<path id="pages_x5F_book-thickness_5_" class="st2" d="M88,256c0,0-47-17,0-34h132v34H88z"/>
			<rect id="top_cover_5_" x="85" y="47" class="st8" width="135" height="173.1"/>
			<path id="spine-pages-arc_5_" class="st9" d="M85,220c0,0-43,18,3,38"/>
			<path id="spine_5_" class="st10" d="M85,47c0,0-10-2-18,2v184c0,0-3-8,18-13V47z"/>
		</g>
		<g id="title_5_">
			<rect id="title_x5F_strip_5_" x="106" y="88" class="st11" width="95" height="46"/>
			<g id="ui_x2F_ux">
				<path class="st6" d="M134.3,118.4c-0.8,0-1.6-0.2-2.4-0.7c-0.7-0.4-1.3-1-1.7-1.8c-0.4-0.7-0.6-1.5-0.6-2.4l0-12
					c0-0.1,0-0.1,0.1-0.1h2.7c0.1,0,0.1,0,0.1,0.1v12c0,0.5,0.2,1,0.5,1.4c0.3,0.4,0.8,0.6,1.3,0.6c0.5,0,0.9-0.2,1.3-0.6
					c0.3-0.4,0.5-0.8,0.5-1.4v-12c0-0.1,0-0.1,0.1-0.1h2.7c0.1,0,0.1,0,0.1,0.1l0,12c0,0.9-0.2,1.7-0.6,2.4c-0.4,0.7-1,1.3-1.7,1.8
					C136,118.2,135.2,118.4,134.3,118.4z"/>
				<path class="st6" d="M141,118.2c-0.1,0-0.1,0-0.1-0.1l0-16.5c0-0.1,0-0.1,0.1-0.1h2.7c0.1,0,0.1,0,0.1,0.1l0,16.5
					c0,0.1,0,0.1-0.1,0.1H141z"/>
				<path class="st6" d="M149.4,118.2c-0.1,0-0.1,0-0.1-0.1l3-16.5c0-0.1,0.1-0.1,0.1-0.1h2.5c0.1,0,0.1,0,0.1,0.1l-3,16.5
					c0,0.1-0.1,0.1-0.1,0.1H149.4z"/>
				<path class="st6" d="M164.7,118.4c-0.8,0-1.6-0.2-2.4-0.7c-0.7-0.4-1.3-1-1.7-1.8c-0.4-0.7-0.6-1.5-0.6-2.4l0-12
					c0-0.1,0-0.1,0.1-0.1h2.7c0.1,0,0.1,0,0.1,0.1v12c0,0.5,0.2,1,0.5,1.4c0.3,0.4,0.8,0.6,1.3,0.6c0.5,0,0.9-0.2,1.3-0.6
					c0.3-0.4,0.5-0.8,0.5-1.4v-12c0-0.1,0-0.1,0.1-0.1h2.7c0.1,0,0.1,0,0.1,0.1l0,12c0,0.9-0.2,1.7-0.6,2.4c-0.4,0.7-1,1.3-1.7,1.8
					C166.3,118.2,165.5,118.4,164.7,118.4z"/>
				<path class="st6" d="M170.3,118.2c-0.1,0-0.1,0-0.1-0.1l2.7-8.6l-2.7-7.9c0-0.1,0-0.1,0.1-0.1h2.7c0.1,0,0.1,0,0.1,0.1l1.6,5.7
					l1.6-5.7c0-0.1,0.1-0.1,0.1-0.1h2.7c0.1,0,0.1,0,0.1,0.1l-2.7,7.9l2.7,8.6c0,0.1,0,0.1-0.1,0.1h-2.7c-0.1,0-0.1,0-0.1-0.1
					l-1.6-6.2l-1.7,6.2c0,0.1-0.1,0.1-0.1,0.1H170.3z"/>
			</g>
		</g>
	</g>
</g>
</svg>
